<?xml version="1.0" encoding="utf-8"?>
<!-- Generated by IcoMoon.io -->
<!DOCTYPE svg PUBLIC "-//W3C//DTD SVG 1.1//EN" "http://www.w3.org/Graphics/SVG/1.1/DTD/svg11.dtd">
<svg version="1.1" xmlns="http://www.w3.org/2000/svg" xmlns:xlink="http://www.w3.org/1999/xlink" width="762" height="80" viewBox="0 0 762 80">
<g transform="translate(0 0)">
	<path d="M17.996 32h-5.996v-16h-4v-5.514l4-0.002-0.007-3.248c0-4.498 1.22-7.236 6.519-7.236h4.412v5.515h-2.757c-2.064 0-2.163 0.771-2.163 2.209l-0.008 2.76h4.959l-0.584 5.514-4.37 0.002-0.004 16z" fill="#ffffff" />
</g>
<g transform="translate(48 0)">
	<path d="M32 6.076c-1.177 0.522-2.443 0.875-3.771 1.034 1.355-0.813 2.396-2.099 2.887-3.632-1.269 0.752-2.674 1.299-4.169 1.593-1.198-1.276-2.904-2.073-4.792-2.073-3.626 0-6.565 2.939-6.565 6.565 0 0.515 0.058 1.016 0.17 1.496-5.456-0.274-10.294-2.888-13.532-6.86-0.565 0.97-0.889 2.097-0.889 3.301 0 2.278 1.159 4.287 2.921 5.465-1.076-0.034-2.088-0.329-2.974-0.821-0.001 0.027-0.001 0.055-0.001 0.083 0 3.181 2.263 5.834 5.266 6.437-0.551 0.15-1.131 0.23-1.73 0.23-0.423 0-0.834-0.041-1.235-0.118 0.835 2.608 3.26 4.506 6.133 4.559-2.247 1.761-5.078 2.81-8.154 2.81-0.53 0-1.052-0.031-1.566-0.092 2.905 1.863 6.356 2.95 10.064 2.95 12.076 0 18.679-10.004 18.679-18.68 0-0.285-0.006-0.568-0.019-0.849 1.283-0.926 2.396-2.082 3.276-3.398z" fill="#ffffff" />
</g>
<g transform="translate(96 0)">
	<path d="M19.414 27.414l10-10c0.781-0.781 0.781-2.047 0-2.828l-10-10c-0.781-0.781-2.047-0.781-2.828 0-0.781 0.781-0.781 2.047 0 2.828l6.586 6.586h-19.172c-1.105 0-2 0.895-2 2s0.895 2 2 2h19.172l-6.586 6.586c-0.39 0.39-0.586 0.902-0.586 1.414s0.195 1.024 0.586 1.414c0.781 0.781 2.047 0.781 2.828 0z" fill="#ffffff" />
</g>
<g transform="translate(144 0)">
	<path d="M31 12h-11v-11c0-0.552-0.448-1-1-1h-6c-0.552 0-1 0.448-1 1v11h-11c-0.552 0-1 0.448-1 1v6c0 0.552 0.448 1 1 1h11v11c0 0.552 0.448 1 1 1h6c0.552 0 1-0.448 1-1v-11h11c0.552 0 1-0.448 1-1v-6c0-0.552-0.448-1-1-1z" fill="#ffffff" />
</g>
<g transform="translate(192 0)">
	<path d="M31.008 27.231l-7.58-6.447c-0.784-0.705-1.622-1.029-2.299-0.998 1.789-2.096 2.87-4.815 2.87-7.787 0-6.627-5.373-12-12-12-6.627 0-12 5.373-12 12 0 6.627 5.373 12 12 12 2.972 0 5.691-1.081 7.787-2.87-0.031 0.677 0.293 1.515 0.998 2.299l6.447 7.58c1.104 1.226 2.907 1.33 4.007 0.23s0.997-2.903-0.23-4.007zM12 20c-4.418 0-8-3.582-8-8s3.582-8 8-8 8 3.582 8 8-3.582 8-8 8z" fill="#ffffff" />
</g>
<g transform="translate(240 0)">
	<path d="M2 0h12v2h-12zM18 0h12v2h-12zM29.75 10h-1.75v-8h-8v8h-8v-8h-8v8h-1.75c-1.238 0-2.25 1.012-2.25 2.25v17.5c0 1.238 1.012 2.25 2.25 2.25h9.5c1.238 0 2.25-1.012 2.25-2.25v-11.75h4v11.75c0 1.238 1.012 2.25 2.25 2.25h9.5c1.238 0 2.25-1.012 2.25-2.25v-17.5c0-1.238-1.012-2.25-2.25-2.25zM10.875 30h-7.75c-0.619 0-1.125-0.45-1.125-1s0.506-1 1.125-1h7.75c0.619 0 1.125 0.45 1.125 1s-0.506 1-1.125 1zM17 16h-2c-0.55 0-1-0.45-1-1s0.45-1 1-1h2c0.55 0 1 0.45 1 1s-0.45 1-1 1zM28.875 30h-7.75c-0.619 0-1.125-0.45-1.125-1s0.506-1 1.125-1h7.75c0.619 0 1.125 0.45 1.125 1s-0.506 1-1.125 1z" fill="#ffffff" />
</g>
<g transform="translate(288 0)">
	<path d="M16 0c-8.837 0-16 7.163-16 16s7.163 16 16 16 16-7.163 16-16-7.163-16-16-16zM16 8c4.418 0 8 3.582 8 8s-3.582 8-8 8-8-3.582-8-8 3.582-8 8-8zM25.546 25.546c-2.55 2.55-5.94 3.954-9.546 3.954-3.606 0-6.996-1.404-9.546-3.954-2.55-2.55-3.954-5.94-3.954-9.546 0-3.606 1.404-6.996 3.954-9.546l2.121 2.121c0 0 0 0 0 0-4.094 4.094-4.094 10.755 0 14.849 1.983 1.983 4.62 3.075 7.425 3.075 2.805 0 5.441-1.092 7.425-3.075 4.094-4.094 4.094-10.755 0-14.849l2.121-2.121c2.55 2.55 3.954 5.94 3.954 9.546 0 3.606-1.404 6.996-3.954 9.546z" fill="#ffffff" />
</g>
<g transform="translate(336 0)">
	<path d="M6 16c0-0.381 0.022-0.756 0.063-1.126l-5.781-1.878c-0.185 0.973-0.283 1.977-0.283 3.004 0 4.601 1.943 8.748 5.052 11.666l3.571-4.916c-1.629-1.779-2.623-4.149-2.623-6.751zM26 16c0 2.602-0.994 4.972-2.623 6.751l3.571 4.916c3.109-2.919 5.052-7.065 5.052-11.666 0-1.027-0.098-2.031-0.283-3.004l-5.781 1.878c0.041 0.37 0.063 0.745 0.063 1.126zM18 6.2c2.873 0.583 5.298 2.398 6.702 4.87l5.781-1.878c-2.287-4.857-6.945-8.377-12.482-9.067v6.076zM7.298 11.070c1.403-2.471 3.829-4.286 6.702-4.87v-6.076c-5.537 0.691-10.195 4.21-12.482 9.067l5.78 1.878zM20.142 25.104c-1.262 0.575-2.665 0.896-4.142 0.896s-2.88-0.321-4.142-0.896l-3.572 4.916c2.288 1.261 4.917 1.98 7.714 1.98s5.426-0.719 7.714-1.98l-3.572-4.916z" fill="#ffffff" />
</g>
<g transform="translate(384 0)">
	<path d="M22 0c-5.523 0-10 4.477-10 10 0 0.626 0.058 1.238 0.168 1.832l-12.168 12.168v6c0 1.105 0.895 2 2 2h2v-2h4v-4h4v-4h4l2.595-2.595c1.063 0.385 2.209 0.595 3.405 0.595 5.523 0 10-4.477 10-10s-4.477-10-10-10zM24.996 10.004c-1.657 0-3-1.343-3-3s1.343-3 3-3 3 1.343 3 3-1.343 3-3 3z" fill="#ffffff" />
</g>
<g transform="translate(432 0)">
	<path d="M14 24.828l-6.414-7.414 1.828-1.828 4.586 3.586 8.586-7.586 1.829 1.828zM25.993 4c0.002 0.002 0.005 0.005 0.007 0.007v23.986c-0.002 0.002-0.005 0.005-0.007 0.007h-19.986c-0.003-0.002-0.005-0.005-0.007-0.007v-23.986c0.002-0.003 0.005-0.005 0.007-0.007h-4.007v24c0 2.2 1.8 4 4 4h20c2.2 0 4-1.8 4-4v-24h-4.007zM20 4v-2c0-1.105-0.895-2-2-2h-4c-1.105 0-2 0.895-2 2v2h-4v4h16v-4h-4zM18 4h-4v-2h4v2z" fill="#ffffff" />
</g>
<g transform="translate(480 0)">
	<path d="M29 4h-26c-1.65 0-3 1.35-3 3v20c0 1.65 1.35 3 3 3h26c1.65 0 3-1.35 3-3v-20c0-1.65-1.35-3-3-3zM12.461 17.199l-8.461 6.59v-15.676l8.461 9.086zM5.512 8h20.976l-10.488 7.875-10.488-7.875zM12.79 17.553l3.21 3.447 3.21-3.447 6.58 8.447h-19.579l6.58-8.447zM19.539 17.199l8.461-9.086v15.676l-8.461-6.59z" fill="#ffffff" />
</g>
<g transform="translate(528 0)">
	<path d="M31.543 0.16c-0.166-0.107-0.355-0.16-0.543-0.16-0.193 0-0.387 0.055-0.555 0.168l-30 20c-0.309 0.205-0.479 0.566-0.439 0.936 0.038 0.369 0.278 0.688 0.623 0.824l7.824 3.131 3.679 6.438c0.176 0.309 0.503 0.5 0.857 0.504 0.004 0 0.007 0 0.011 0 0.351 0 0.677-0.186 0.857-0.486l2.077-3.463 9.695 3.877c0.119 0.048 0.244 0.071 0.371 0.071 0.17 0 0.338-0.043 0.49-0.129 0.264-0.148 0.445-0.408 0.496-0.707l5-30c0.065-0.393-0.109-0.787-0.443-1.004zM3.136 20.777l23.175-15.451-16.85 18.037c-0.089-0.053-0.168-0.123-0.266-0.162l-6.059-2.424zM10.189 24.066c-0.002-0.004-0.005-0.006-0.007-0.010l18.943-20.275-16.149 25.162-2.787-4.877zM25.217 29.609l-8.541-3.416c-0.203-0.080-0.414-0.107-0.623-0.119l13.152-20.388-3.988 23.923z" fill="#ffffff" />
</g>
<g transform="translate(576 0)">
	<path d="M20 18c3.308 0 6.308 1.346 8.481 3.519l-2.827 2.827c-1.449-1.449-3.449-2.346-5.654-2.346s-4.206 0.897-5.654 2.346l-2.827-2.827c2.173-2.173 5.173-3.519 8.481-3.519zM5.858 15.858c3.777-3.777 8.8-5.858 14.142-5.858s10.365 2.080 14.142 5.858l-2.828 2.828c-3.022-3.022-7.040-4.686-11.314-4.686-4.274 0-8.292 1.664-11.314 4.686l-2.828-2.828zM30.899 4.201c3.334 1.41 6.329 3.429 8.899 6v0l-2.828 2.828c-4.533-4.533-10.56-7.029-16.971-7.029-6.411 0-12.438 2.496-16.971 7.029l-2.828-2.828c2.571-2.571 5.565-4.589 8.899-6 3.453-1.461 7.12-2.201 10.899-2.201 3.779 0 7.446 0.741 10.899 2.201zM18 28c0-1.105 0.895-2 2-2s2 0.895 2 2c0 1.105-0.895 2-2 2-1.105 0-2-0.895-2-2z" fill="#ffffff" />
</g>
<g transform="translate(632 0)">
	<path d="M28.994 0h-9.018c-1.653 0-3.962 0.956-5.131 2.125l-13.968 13.968c-1.169 1.169-1.169 3.082 0 4.251l10.778 10.778c1.169 1.169 3.082 1.169 4.251 0l13.968-13.968c1.169-1.169 2.125-3.478 2.125-5.131v-9.018c0-1.653-1.353-3.006-3.006-3.006zM25 10c-1.657 0-3-1.343-3-3s1.343-3 3-3 3 1.343 3 3-1.343 3-3 3z" fill="#ffffff" />
</g>
<g transform="translate(680 0)">
	<path d="M31 2h-7c-1.65 0-3.955 0.955-5.121 2.121l-11.757 11.757c-1.167 1.167-1.167 3.076 0 4.243l8.757 8.757c1.167 1.167 3.076 1.167 4.243 0l11.757-11.757c1.167-1.167 2.121-3.471 2.121-5.121v-7c0-1.65-1.35-3-3-3zM27 12c-1.657 0-3-1.343-3-3s1.343-3 3-3 3 1.343 3 3-1.343 3-3 3zM2.707 18.707l10.699 10.699c-1.133 0.599-2.577 0.423-3.528-0.528l-8.757-8.757c-1.167-1.167-1.167-3.076 0-4.243l11.757-11.757c1.167-1.167 3.471-2.121 5.121-2.121l-15.293 15.293c-0.389 0.389-0.389 1.025 0 1.414z" fill="#ffffff" />
</g>
<g transform="translate(730 0)">
	<path d="M12 18.333c0 0 6.373-3.824 9.961-2.313 0.744-1.133 1.477-2.354 2.194-3.601-3.51-0.86-8.155-0.086-8.155-0.086s5.944-3.566 9.583-2.45c0.73-1.316 1.439-2.614 2.124-3.822-2.899-0.196-5.707 0.272-5.707 0.272s3.723-2.234 7.081-2.612c1.056-1.714 2.037-3.059 2.919-3.721-17.531 0-28 20-32 32h2l6-10c0 0 2 2 8 0 1.421-0.474 2.842-1.789 4.237-3.56-3.519-0.892-8.237-0.106-8.237-0.106z" fill="#ffffff" />
</g>
<g transform="translate(0 48)">
	<path d="M27 0c2.761 0 5 2.239 5 5 0 1.126-0.372 2.164-1 3l-2 2-7-7 2-2c0.836-0.628 1.874-1 3-1zM2 23l-2 9 9-2 18.5-18.5-7-7-18.5 18.5zM22.362 11.362l-14 14-1.724-1.724 14-14 1.724 1.724z" fill="#ffffff" />
</g>
<g transform="translate(48 48)">
	<path d="M0 32h16v-32h-16v32zM10 4h4v4h-4v-4zM10 12h4v4h-4v-4zM10 20h4v4h-4v-4zM2 4h4v4h-4v-4zM2 12h4v4h-4v-4zM2 20h4v4h-4v-4zM18 10h14v2h-14zM18 32h4v-8h6v8h4v-18h-14z" fill="#ffffff" />
</g>
<g transform="translate(96 48)">
	<path d="M6 18.071v13.857c0.327 0.047 0.66 0.071 1 0.071h1v-14h-1c-0.34 0-0.673 0.025-1 0.071zM24 18v14h1c0.34 0 0.673-0.025 1-0.071v-13.857c-0.327-0.047-0.66-0.071-1-0.071h-1zM32 16c0-8.837-7.163-16-16-16s-16 7.163-16 16c0 1.919 0.338 3.76 0.958 5.465-0.609 1.038-0.958 2.245-0.958 3.535 0 2.792 1.635 5.202 4 6.326v-12.652c-0.629 0.299-1.206 0.689-1.714 1.153-0.187-0.913-0.286-1.859-0.286-2.827 0-7.732 6.268-14 14-14s14 6.268 14 14c0 0.969-0.098 1.914-0.286 2.827-0.509-0.464-1.085-0.854-1.714-1.153v12.652c2.365-1.124 4-3.534 4-6.326 0-1.29-0.349-2.498-0.958-3.535 0.62-1.705 0.958-3.546 0.958-5.465z" fill="#ffffff" />
</g>
<g transform="translate(144 48)">
	<path d="M0 4v24h32v-24h-32zM6 26h-4v-4h4v4zM6 18h-4v-4h4v4zM6 10h-4v-4h4v4zM24 26h-16v-20h16v20zM30 26h-4v-4h4v4zM30 18h-4v-4h4v4zM30 10h-4v-4h4v4zM12 10v12l8-6z" fill="#ffffff" />
</g>
<g transform="translate(192 48)">
	<path d="M30.662 5.003c-4.488-0.645-9.448-1.003-14.662-1.003-5.214 0-10.174 0.358-14.662 1.003-0.86 3.366-1.338 7.086-1.338 10.997 0 3.911 0.477 7.63 1.338 10.997 4.489 0.645 9.448 1.003 14.662 1.003 5.214 0 10.174-0.358 14.662-1.003 0.86-3.366 1.338-7.086 1.338-10.997 0-3.911-0.477-7.63-1.338-10.997zM12 22v-12l10 6-10 6z" fill="#ffffff" />
</g>
<g transform="translate(240 48)">
	<path d="M16 0l-16 10h32l-16-10zM25 12l1 2v12h4v-12l1-2h-6zM17 12l1 2v12h4v-12l1-2h-6zM9 12l1 2v12h4v-12l1-2h-6zM1 12l1 2v12h4v-12l1-2h-6zM1 28l-1 4h32l-1-4h-30zM18 6c0 1.105-0.895 2-2 2s-2-0.895-2-2 0.895-2 2-2c1.105 0 2 0.895 2 2z" fill="#ffffff" />
</g>
<g transform="translate(288 48)">
	<path d="M18.007 9.040l7.585-2.545 6.362 18.962-7.585 2.545zM0 28h8v-22h-8v22zM2 10h4v2h-4v-2zM10 28h8v-22h-8v22zM12 10h4v2h-4v-2z" fill="#ffffff" />
</g>
<g transform="translate(336 48)">
	<path d="M16 0c-8.837 0-16 7.163-16 16s7.163 16 16 16 16-7.163 16-16-7.163-16-16-16zM16 29c-7.18 0-13-5.82-13-13s5.82-13 13-13 13 5.82 13 13-5.82 13-13 13zM19 13l-9-5h-2v2l5 9 9 5h2v-2l-5-9zM16 18c-1.105 0-2-0.895-2-2s0.895-2 2-2c1.105 0 2 0.895 2 2 0 1.105-0.895 2-2 2z" fill="#ffffff" />
</g>
<g transform="translate(384 48)">
	<path d="M16 0c-5.523 0-10 4.477-10 10 0 10 10 22 10 22s10-12 10-22c0-5.523-4.477-10-10-10zM16 16.125c-3.383 0-6.125-2.742-6.125-6.125s2.742-6.125 6.125-6.125 6.125 2.742 6.125 6.125-2.742 6.125-6.125 6.125zM12.125 10c0-2.14 1.735-3.875 3.875-3.875s3.875 1.735 3.875 3.875c0 2.14-1.735 3.875-3.875 3.875-2.14 0-3.875-1.735-3.875-3.875z" fill="#ffffff" />
</g>
<g transform="translate(432 48)">
	<path d="M21 6l-10-4-11 4v24l11-4 10 4 11-4v-24l-11 4zM12 4.554l8 3.2v19.692l-8-3.2v-19.692zM2 7.401l8-2.909v19.744l-8 2.909v-19.744zM30 24.599l-8 2.909v-19.744l8-2.909v19.744z" fill="#ffffff" />
</g>
<g transform="translate(480 48)">
	<path d="M12.586 4.586l-10 10c-0.781 0.781-0.781 2.047 0 2.828l10 10c0.781 0.781 2.047 0.781 2.828 0 0.781-0.781 0.781-2.047 0-2.828l-6.586-6.586h19.172c1.105 0 2-0.895 2-2 0-1.105-0.895-2-2-2h-19.172l6.586-6.586c0.39-0.391 0.586-0.902 0.586-1.414s-0.195-1.024-0.586-1.414c-0.781-0.781-2.047-0.781-2.828 0z" fill="#ffffff" />
</g>
</svg>
